<?xml version="1.0" standalone="no"?>
<!DOCTYPE svg PUBLIC "-//W3C//DTD SVG 20010904//EN"
 "http://www.w3.org/TR/2001/REC-SVG-20010904/DTD/svg10.dtd">
<svg version="1.0" xmlns="http://www.w3.org/2000/svg"
 width="1024.000000pt" height="1024.000000pt" viewBox="0 0 1024.000000 1024.000000"
 preserveAspectRatio="xMidYMid meet">

<g transform="translate(0.000000,1024.000000) scale(0.100000,-0.100000)"
fill="#000000" stroke="none">
<path d="M5936 8621 c-4 -6 -20 -11 -37 -11 -16 0 -37 -4 -47 -9 -9 -5 -37
-17 -62 -27 -101 -40 -234 -154 -306 -263 -132 -200 -131 -478 3 -689 18 -29
33 -61 33 -72 0 -10 -17 -31 -39 -47 -41 -29 -61 -60 -86 -131 -17 -51 -28
-62 -80 -85 -43 -19 -98 -47 -130 -65 -11 -6 -38 -19 -60 -28 -68 -28 -143
-63 -310 -144 -233 -114 -354 -170 -365 -170 -6 0 -10 -4 -10 -10 0 -5 -5 -10
-11 -10 -6 0 -75 -31 -153 -70 -78 -38 -147 -70 -153 -70 -6 0 -13 -3 -15 -7
-3 -7 -85 -49 -253 -129 -33 -16 -61 -32 -63 -36 -2 -5 -9 -8 -15 -8 -8 0
-298 -138 -410 -195 -16 -8 -35 -15 -43 -15 -8 0 -14 -3 -14 -8 0 -4 -15 -13
-32 -21 -149 -62 -204 -98 -224 -147 -12 -27 -14 -153 -14 -702 0 -662 0 -670
21 -696 27 -34 84 -35 137 -3 59 37 669 331 997 482 33 15 114 54 179 86 65
33 125 59 133 59 11 0 13 -41 11 -232 l-3 -233 -158 -7 c-86 -4 -166 -12 -176
-18 -11 -5 -30 -10 -43 -10 -13 0 -28 -4 -34 -8 -5 -4 -34 -16 -64 -27 -220
-75 -435 -275 -538 -500 -68 -148 -77 -195 -77 -400 0 -160 3 -189 24 -260 43
-147 136 -309 240 -419 80 -84 274 -216 317 -216 8 0 14 -4 14 -10 0 -5 8 -10
18 -10 10 0 22 -3 26 -7 23 -23 225 -56 341 -55 107 0 309 33 329 53 6 5 20 9
33 9 13 0 23 5 23 10 0 6 4 10 10 10 5 0 35 12 67 27 125 58 277 185 363 305
53 72 124 208 135 257 11 52 30 38 60 -44 60 -166 281 -545 487 -836 86 -121
109 -142 150 -141 36 1 57 22 152 156 95 132 253 383 321 511 18 34 60 112 94
174 33 62 70 139 83 170 l22 56 1 1155 c0 635 4 1161 8 1168 5 6 27 12 51 12
23 0 46 4 51 8 6 5 36 17 68 27 32 11 66 26 75 35 9 8 35 28 57 45 122 90 185
210 192 370 4 76 1 102 -20 167 -28 87 -97 192 -155 235 -20 15 -39 31 -42 34
-5 6 -90 50 -130 67 -14 6 -51 13 -82 15 -32 3 -62 8 -68 12 -6 4 -10 75 -10
188 0 210 -6 229 -80 285 -25 19 -46 38 -48 43 -4 9 8 34 51 110 98 173 100
401 5 599 -33 68 -57 100 -127 170 -83 83 -125 110 -266 170 -54 23 -318 40
-329 21z m261 -363 c59 -28 124 -92 155 -155 18 -37 23 -65 23 -122 l0 -74
-95 -48 c-111 -57 -182 -73 -300 -67 -70 4 -96 11 -145 36 -102 53 -100 50
-100 155 0 82 3 97 27 139 84 141 287 205 435 136z m183 -1093 l0 -165 -160 0
-160 0 0 165 0 165 160 0 160 0 0 -165z m-1274 -1797 c-3 -1429 -3 -1433 -24
-1513 -25 -91 -92 -231 -110 -228 -6 2 -9 -3 -7 -10 5 -11 -113 -152 -121
-144 -2 2 17 65 41 140 25 75 45 139 45 143 0 3 -28 -20 -62 -51 -87 -79 -135
-110 -220 -144 -304 -122 -624 -13 -791 270 -43 73 -81 188 -78 237 3 59 52
196 88 250 51 75 143 148 248 197 114 54 162 65 273 65 67 0 113 -7 178 -26
100 -28 146 -52 228 -119 l56 -46 0 870 0 870 -47 -23 c-27 -13 -118 -56 -203
-94 -85 -39 -227 -105 -315 -147 -156 -75 -244 -116 -375 -178 -36 -16 -148
-70 -250 -120 -102 -49 -204 -98 -228 -108 l-42 -18 2 262 3 262 421 210 c659
329 1264 623 1281 624 10 1 12 -310 9 -1431z m1694 1302 c55 -28 83 -72 88
-139 4 -66 -18 -109 -70 -141 -32 -19 -52 -20 -725 -20 l-693 0 0 48 c0 26 -3
98 -7 160 l-6 112 687 0 c664 0 688 -1 726 -20z m-411 -1801 c1 -639 5 -996
11 -1015 9 -26 -1 -53 -103 -269 -63 -132 -141 -292 -173 -355 l-59 -115 -5
1040 c-3 572 -7 932 -9 800 -3 -132 -6 -212 -8 -177 -4 58 -5 62 -28 62 -22 0
-25 4 -25 40 0 39 -1 40 -35 40 -30 0 -35 -3 -35 -23 0 -22 -4 -24 -40 -20
-35 3 -40 1 -40 -17 0 -13 -7 -20 -20 -20 -13 0 -20 -7 -20 -20 0 -18 -11 -25
-33 -21 -5 1 -7 -4 -5 -11 3 -7 10 -13 15 -13 6 0 15 -3 19 -7 3 -4 -3 -6 -15
-3 -20 4 -21 0 -21 -60 0 -35 -4 -67 -10 -70 -7 -4 -10 204 -10 615 0 376 4
620 9 618 13 -4 85 -71 211 -194 l105 -102 25 31 c13 18 17 26 7 18 -18 -15
-21 -8 -7 24 5 11 9 14 9 8 1 -7 7 -13 15 -13 18 0 58 49 50 61 -3 5 3 6 12 2
12 -4 15 -3 10 5 -4 7 -3 12 2 12 10 0 32 44 32 65 0 8 -9 15 -20 15 -11 0
-20 7 -20 15 0 8 -9 15 -20 15 -11 0 -20 -4 -20 -10 0 -5 -6 -10 -14 -10 -8 0
-16 -6 -19 -12 -9 -25 -15 -2 -19 74 l-5 77 146 3 146 3 7 -50 c3 -27 6 -494
7 -1036z m-249 796 c-7 -9 -15 -13 -17 -11 -7 7 7 26 19 26 6 0 6 -6 -2 -15z
m-266 -923 c2 -4 -4 -8 -14 -8 -10 0 -16 4 -14 8 3 4 9 8 14 8 5 0 11 -4 14
-8z"/>
<path d="M6248 6383 c6 -2 18 -2 25 0 6 3 1 5 -13 5 -14 0 -19 -2 -12 -5z"/>
<path d="M6413 6383 c9 -2 25 -2 35 0 9 3 1 5 -18 5 -19 0 -27 -2 -17 -5z"/>
<path d="M6349 5863 c-13 -16 -12 -17 4 -4 9 7 17 15 17 17 0 8 -8 3 -21 -13z"/>
<path d="M5806 4938 c3 -5 10 -6 15 -3 13 9 11 12 -6 12 -8 0 -12 -4 -9 -9z"/>
</g>
</svg>
